<mxfile host="www.draw.io" modified="2019-12-17T09:25:03.483Z" agent="Mozilla/5.0 (Macintosh; Intel Mac OS X 10_14_6) AppleWebKit/537.36 (KHTML, like Gecko) Chrome/79.0.3945.36 Safari/537.36 Edg/79.0.309.25" etag="7K2pvbndMriNgQF45O8h" version="12.4.2" type="github" pages="1">
  <diagram id="_09j2-850YYOZ5M-d9I4" name="第 1 页">
    <mxGraphModel dx="1096" dy="739" grid="1" gridSize="10" guides="1" tooltips="1" connect="1" arrows="1" fold="1" page="1" pageScale="1" pageWidth="3300" pageHeight="4681" math="0" shadow="0">
      <root>
        <mxCell id="0"/>
        <mxCell id="1" parent="0"/>
        <mxCell id="sncNzBVA_kgcy9QADJLG-149" style="edgeStyle=orthogonalEdgeStyle;rounded=0;orthogonalLoop=1;jettySize=auto;html=1;exitX=0.75;exitY=1;exitDx=0;exitDy=0;entryX=1;entryY=0.5;entryDx=0;entryDy=0;entryPerimeter=0;endArrow=classic;endFill=1;dashed=1;" edge="1" parent="1" source="sncNzBVA_kgcy9QADJLG-9" target="sncNzBVA_kgcy9QADJLG-148">
          <mxGeometry relative="1" as="geometry"/>
        </mxCell>
        <mxCell id="sncNzBVA_kgcy9QADJLG-9" value="" style="html=1;" vertex="1" parent="1">
          <mxGeometry x="340" y="310" width="400" height="520" as="geometry"/>
        </mxCell>
        <mxCell id="sncNzBVA_kgcy9QADJLG-10" value="" style="shape=component;jettyWidth=8;jettyHeight=4;" vertex="1" parent="sncNzBVA_kgcy9QADJLG-9">
          <mxGeometry x="1" width="20" height="20" relative="1" as="geometry">
            <mxPoint x="-27" y="7" as="offset"/>
          </mxGeometry>
        </mxCell>
        <mxCell id="sncNzBVA_kgcy9QADJLG-53" style="edgeStyle=orthogonalEdgeStyle;rounded=0;orthogonalLoop=1;jettySize=auto;html=1;exitX=1;exitY=0.5;exitDx=0;exitDy=0;entryX=1;entryY=0.5;entryDx=0;entryDy=0;entryPerimeter=0;endArrow=classic;endFill=1;" edge="1" parent="sncNzBVA_kgcy9QADJLG-9" source="sncNzBVA_kgcy9QADJLG-11" target="sncNzBVA_kgcy9QADJLG-52">
          <mxGeometry relative="1" as="geometry">
            <Array as="points">
              <mxPoint x="200" y="125"/>
              <mxPoint x="200" y="395"/>
            </Array>
          </mxGeometry>
        </mxCell>
        <mxCell id="sncNzBVA_kgcy9QADJLG-64" style="edgeStyle=orthogonalEdgeStyle;rounded=0;orthogonalLoop=1;jettySize=auto;html=1;exitX=0.5;exitY=1;exitDx=0;exitDy=0;entryX=1;entryY=0.5;entryDx=0;entryDy=0;entryPerimeter=0;endArrow=classic;endFill=1;fillColor=#d5e8d4;strokeColor=#82b366;" edge="1" parent="sncNzBVA_kgcy9QADJLG-9" source="sncNzBVA_kgcy9QADJLG-11" target="sncNzBVA_kgcy9QADJLG-58">
          <mxGeometry relative="1" as="geometry">
            <Array as="points">
              <mxPoint x="118" y="170"/>
              <mxPoint x="220" y="170"/>
              <mxPoint x="220" y="260"/>
            </Array>
          </mxGeometry>
        </mxCell>
        <mxCell id="sncNzBVA_kgcy9QADJLG-11" value="&amp;lt;&amp;lt;component&amp;gt;&amp;gt;&lt;br&gt;最小方法" style="html=1;" vertex="1" parent="sncNzBVA_kgcy9QADJLG-9">
          <mxGeometry x="60.00000000000001" y="95" width="115.71" height="60" as="geometry"/>
        </mxCell>
        <mxCell id="sncNzBVA_kgcy9QADJLG-12" value="" style="shape=component;jettyWidth=8;jettyHeight=4;" vertex="1" parent="sncNzBVA_kgcy9QADJLG-11">
          <mxGeometry x="1" width="20" height="20" relative="1" as="geometry">
            <mxPoint x="-27" y="7" as="offset"/>
          </mxGeometry>
        </mxCell>
        <mxCell id="sncNzBVA_kgcy9QADJLG-54" style="edgeStyle=orthogonalEdgeStyle;rounded=0;orthogonalLoop=1;jettySize=auto;html=1;exitX=1;exitY=0.5;exitDx=0;exitDy=0;entryX=1;entryY=0.5;entryDx=0;entryDy=0;entryPerimeter=0;endArrow=classic;endFill=1;" edge="1" parent="sncNzBVA_kgcy9QADJLG-9" source="sncNzBVA_kgcy9QADJLG-13" target="sncNzBVA_kgcy9QADJLG-52">
          <mxGeometry relative="1" as="geometry">
            <Array as="points">
              <mxPoint x="200" y="215"/>
              <mxPoint x="200" y="395"/>
            </Array>
          </mxGeometry>
        </mxCell>
        <mxCell id="sncNzBVA_kgcy9QADJLG-13" value="&amp;lt;&amp;lt;component&amp;gt;&amp;gt;&lt;br&gt;原子方法" style="html=1;" vertex="1" parent="sncNzBVA_kgcy9QADJLG-9">
          <mxGeometry x="60.00000000000001" y="185" width="115.71" height="60" as="geometry"/>
        </mxCell>
        <mxCell id="sncNzBVA_kgcy9QADJLG-14" value="" style="shape=component;jettyWidth=8;jettyHeight=4;" vertex="1" parent="sncNzBVA_kgcy9QADJLG-13">
          <mxGeometry x="1" width="20" height="20" relative="1" as="geometry">
            <mxPoint x="-27" y="7" as="offset"/>
          </mxGeometry>
        </mxCell>
        <mxCell id="sncNzBVA_kgcy9QADJLG-55" style="edgeStyle=orthogonalEdgeStyle;rounded=0;orthogonalLoop=1;jettySize=auto;html=1;exitX=1;exitY=0.5;exitDx=0;exitDy=0;entryX=1;entryY=0.5;entryDx=0;entryDy=0;entryPerimeter=0;endArrow=classic;endFill=1;" edge="1" parent="sncNzBVA_kgcy9QADJLG-9" source="sncNzBVA_kgcy9QADJLG-15" target="sncNzBVA_kgcy9QADJLG-52">
          <mxGeometry relative="1" as="geometry">
            <Array as="points">
              <mxPoint x="200" y="305"/>
              <mxPoint x="200" y="395"/>
            </Array>
          </mxGeometry>
        </mxCell>
        <mxCell id="sncNzBVA_kgcy9QADJLG-65" style="edgeStyle=orthogonalEdgeStyle;rounded=0;orthogonalLoop=1;jettySize=auto;html=1;exitX=0.5;exitY=0;exitDx=0;exitDy=0;entryX=1;entryY=0.5;entryDx=0;entryDy=0;entryPerimeter=0;endArrow=classic;endFill=1;fillColor=#d5e8d4;strokeColor=#82b366;" edge="1" parent="sncNzBVA_kgcy9QADJLG-9" source="sncNzBVA_kgcy9QADJLG-15" target="sncNzBVA_kgcy9QADJLG-58">
          <mxGeometry relative="1" as="geometry">
            <Array as="points">
              <mxPoint x="118" y="260"/>
            </Array>
          </mxGeometry>
        </mxCell>
        <mxCell id="sncNzBVA_kgcy9QADJLG-15" value="&amp;lt;&amp;lt;component&amp;gt;&amp;gt;&lt;br&gt;原子组件" style="html=1;" vertex="1" parent="sncNzBVA_kgcy9QADJLG-9">
          <mxGeometry x="60.00000000000001" y="275" width="115.71" height="60" as="geometry"/>
        </mxCell>
        <mxCell id="sncNzBVA_kgcy9QADJLG-16" value="" style="shape=component;jettyWidth=8;jettyHeight=4;" vertex="1" parent="sncNzBVA_kgcy9QADJLG-15">
          <mxGeometry x="1" width="20" height="20" relative="1" as="geometry">
            <mxPoint x="-27" y="7" as="offset"/>
          </mxGeometry>
        </mxCell>
        <mxCell id="sncNzBVA_kgcy9QADJLG-56" style="edgeStyle=orthogonalEdgeStyle;rounded=0;orthogonalLoop=1;jettySize=auto;html=1;exitX=1;exitY=0.5;exitDx=0;exitDy=0;entryX=1;entryY=0.5;entryDx=0;entryDy=0;entryPerimeter=0;endArrow=classic;endFill=1;" edge="1" parent="sncNzBVA_kgcy9QADJLG-9" source="sncNzBVA_kgcy9QADJLG-17" target="sncNzBVA_kgcy9QADJLG-52">
          <mxGeometry relative="1" as="geometry"/>
        </mxCell>
        <mxCell id="sncNzBVA_kgcy9QADJLG-66" style="edgeStyle=orthogonalEdgeStyle;rounded=0;orthogonalLoop=1;jettySize=auto;html=1;exitX=0.5;exitY=0;exitDx=0;exitDy=0;entryX=1;entryY=0.5;entryDx=0;entryDy=0;entryPerimeter=0;endArrow=classic;endFill=1;fillColor=#d5e8d4;strokeColor=#82b366;" edge="1" parent="sncNzBVA_kgcy9QADJLG-9" source="sncNzBVA_kgcy9QADJLG-17" target="sncNzBVA_kgcy9QADJLG-58">
          <mxGeometry relative="1" as="geometry">
            <Array as="points">
              <mxPoint x="118" y="350"/>
              <mxPoint x="220" y="350"/>
              <mxPoint x="220" y="260"/>
            </Array>
          </mxGeometry>
        </mxCell>
        <mxCell id="sncNzBVA_kgcy9QADJLG-17" value="&amp;lt;&amp;lt;component&amp;gt;&amp;gt;&lt;br&gt;统一管理" style="html=1;" vertex="1" parent="sncNzBVA_kgcy9QADJLG-9">
          <mxGeometry x="60.00000000000001" y="365" width="115.71" height="60" as="geometry"/>
        </mxCell>
        <mxCell id="sncNzBVA_kgcy9QADJLG-18" value="" style="shape=component;jettyWidth=8;jettyHeight=4;" vertex="1" parent="sncNzBVA_kgcy9QADJLG-17">
          <mxGeometry x="1" width="20" height="20" relative="1" as="geometry">
            <mxPoint x="-27" y="7" as="offset"/>
          </mxGeometry>
        </mxCell>
        <mxCell id="sncNzBVA_kgcy9QADJLG-19" value="GUI后台" style="text;html=1;strokeColor=none;fillColor=none;align=center;verticalAlign=middle;whiteSpace=wrap;rounded=0;" vertex="1" parent="sncNzBVA_kgcy9QADJLG-9">
          <mxGeometry x="150" width="100" height="20" as="geometry"/>
        </mxCell>
        <mxCell id="sncNzBVA_kgcy9QADJLG-31" value="&amp;lt;&amp;lt;component&amp;gt;&amp;gt;&lt;br&gt;格式转化" style="html=1;" vertex="1" parent="sncNzBVA_kgcy9QADJLG-9">
          <mxGeometry x="270" y="230" width="115.71" height="60" as="geometry"/>
        </mxCell>
        <mxCell id="sncNzBVA_kgcy9QADJLG-32" value="" style="shape=component;jettyWidth=8;jettyHeight=4;" vertex="1" parent="sncNzBVA_kgcy9QADJLG-31">
          <mxGeometry x="1" width="20" height="20" relative="1" as="geometry">
            <mxPoint x="-27" y="7" as="offset"/>
          </mxGeometry>
        </mxCell>
        <mxCell id="sncNzBVA_kgcy9QADJLG-50" value="&amp;lt;&amp;lt;component&amp;gt;&amp;gt;&lt;br&gt;元数据&lt;br&gt;数据存储" style="html=1;" vertex="1" parent="sncNzBVA_kgcy9QADJLG-9">
          <mxGeometry x="270" y="365" width="115.71" height="60" as="geometry"/>
        </mxCell>
        <mxCell id="sncNzBVA_kgcy9QADJLG-51" value="" style="shape=component;jettyWidth=8;jettyHeight=4;" vertex="1" parent="sncNzBVA_kgcy9QADJLG-50">
          <mxGeometry x="1" width="20" height="20" relative="1" as="geometry">
            <mxPoint x="-27" y="7" as="offset"/>
          </mxGeometry>
        </mxCell>
        <mxCell id="sncNzBVA_kgcy9QADJLG-57" style="edgeStyle=orthogonalEdgeStyle;rounded=0;orthogonalLoop=1;jettySize=auto;html=1;exitX=0;exitY=0.5;exitDx=0;exitDy=0;exitPerimeter=0;entryX=0;entryY=0.5;entryDx=0;entryDy=0;endArrow=none;endFill=0;" edge="1" parent="sncNzBVA_kgcy9QADJLG-9" source="sncNzBVA_kgcy9QADJLG-52" target="sncNzBVA_kgcy9QADJLG-50">
          <mxGeometry relative="1" as="geometry"/>
        </mxCell>
        <mxCell id="sncNzBVA_kgcy9QADJLG-52" value="" style="shape=providedRequiredInterface;html=1;verticalLabelPosition=bottom;rotation=-180;" vertex="1" parent="sncNzBVA_kgcy9QADJLG-9">
          <mxGeometry x="220" y="385" width="20" height="20" as="geometry"/>
        </mxCell>
        <mxCell id="sncNzBVA_kgcy9QADJLG-59" style="edgeStyle=orthogonalEdgeStyle;rounded=0;orthogonalLoop=1;jettySize=auto;html=1;exitX=0;exitY=0.5;exitDx=0;exitDy=0;exitPerimeter=0;entryX=0;entryY=0.5;entryDx=0;entryDy=0;endArrow=none;endFill=0;" edge="1" parent="sncNzBVA_kgcy9QADJLG-9" source="sncNzBVA_kgcy9QADJLG-58" target="sncNzBVA_kgcy9QADJLG-31">
          <mxGeometry relative="1" as="geometry"/>
        </mxCell>
        <mxCell id="sncNzBVA_kgcy9QADJLG-58" value="" style="shape=providedRequiredInterface;html=1;verticalLabelPosition=bottom;rotation=-180;" vertex="1" parent="sncNzBVA_kgcy9QADJLG-9">
          <mxGeometry x="240" y="250" width="20" height="20" as="geometry"/>
        </mxCell>
        <mxCell id="sncNzBVA_kgcy9QADJLG-153" value="格式转换" style="text;html=1;strokeColor=none;fillColor=none;align=center;verticalAlign=middle;whiteSpace=wrap;rounded=0;" vertex="1" parent="sncNzBVA_kgcy9QADJLG-9">
          <mxGeometry x="225" y="275" width="50" height="20" as="geometry"/>
        </mxCell>
        <mxCell id="sncNzBVA_kgcy9QADJLG-154" value="数据存储" style="text;html=1;strokeColor=none;fillColor=none;align=center;verticalAlign=middle;whiteSpace=wrap;rounded=0;" vertex="1" parent="sncNzBVA_kgcy9QADJLG-9">
          <mxGeometry x="210" y="410" width="50" height="20" as="geometry"/>
        </mxCell>
        <mxCell id="sncNzBVA_kgcy9QADJLG-150" style="edgeStyle=orthogonalEdgeStyle;rounded=0;orthogonalLoop=1;jettySize=auto;html=1;exitX=0.25;exitY=1;exitDx=0;exitDy=0;entryX=1;entryY=0.5;entryDx=0;entryDy=0;entryPerimeter=0;endArrow=classic;endFill=1;dashed=1;" edge="1" parent="1" source="sncNzBVA_kgcy9QADJLG-33" target="sncNzBVA_kgcy9QADJLG-148">
          <mxGeometry relative="1" as="geometry"/>
        </mxCell>
        <mxCell id="sncNzBVA_kgcy9QADJLG-33" value="" style="html=1;" vertex="1" parent="1">
          <mxGeometry x="890" y="310" width="530" height="520" as="geometry"/>
        </mxCell>
        <mxCell id="sncNzBVA_kgcy9QADJLG-34" value="" style="shape=component;jettyWidth=8;jettyHeight=4;" vertex="1" parent="sncNzBVA_kgcy9QADJLG-33">
          <mxGeometry x="1" width="20" height="20" relative="1" as="geometry">
            <mxPoint x="-27" y="7" as="offset"/>
          </mxGeometry>
        </mxCell>
        <mxCell id="sncNzBVA_kgcy9QADJLG-89" style="edgeStyle=orthogonalEdgeStyle;rounded=0;orthogonalLoop=1;jettySize=auto;html=1;exitX=0;exitY=0.5;exitDx=0;exitDy=0;exitPerimeter=0;entryX=0;entryY=0.5;entryDx=0;entryDy=0;endArrow=none;endFill=0;" edge="1" parent="sncNzBVA_kgcy9QADJLG-33" source="sncNzBVA_kgcy9QADJLG-72" target="sncNzBVA_kgcy9QADJLG-83">
          <mxGeometry relative="1" as="geometry"/>
        </mxCell>
        <mxCell id="sncNzBVA_kgcy9QADJLG-90" style="edgeStyle=orthogonalEdgeStyle;rounded=0;orthogonalLoop=1;jettySize=auto;html=1;exitX=0;exitY=0.5;exitDx=0;exitDy=0;exitPerimeter=0;entryX=0;entryY=0.5;entryDx=0;entryDy=0;endArrow=none;endFill=0;" edge="1" parent="sncNzBVA_kgcy9QADJLG-33" source="sncNzBVA_kgcy9QADJLG-72" target="sncNzBVA_kgcy9QADJLG-85">
          <mxGeometry relative="1" as="geometry"/>
        </mxCell>
        <mxCell id="sncNzBVA_kgcy9QADJLG-91" style="edgeStyle=orthogonalEdgeStyle;rounded=0;orthogonalLoop=1;jettySize=auto;html=1;exitX=0;exitY=0.5;exitDx=0;exitDy=0;exitPerimeter=0;entryX=0;entryY=0.5;entryDx=0;entryDy=0;endArrow=none;endFill=0;" edge="1" parent="sncNzBVA_kgcy9QADJLG-33" source="sncNzBVA_kgcy9QADJLG-72" target="sncNzBVA_kgcy9QADJLG-87">
          <mxGeometry relative="1" as="geometry"/>
        </mxCell>
        <mxCell id="sncNzBVA_kgcy9QADJLG-72" value="" style="shape=providedRequiredInterface;html=1;verticalLabelPosition=bottom;rotation=-180;" vertex="1" parent="sncNzBVA_kgcy9QADJLG-33">
          <mxGeometry x="60" y="250" width="20" height="20" as="geometry"/>
        </mxCell>
        <mxCell id="sncNzBVA_kgcy9QADJLG-95" style="edgeStyle=orthogonalEdgeStyle;rounded=0;orthogonalLoop=1;jettySize=auto;html=1;exitX=1;exitY=0.5;exitDx=0;exitDy=0;entryX=1;entryY=0.5;entryDx=0;entryDy=0;entryPerimeter=0;endArrow=classic;endFill=1;" edge="1" parent="sncNzBVA_kgcy9QADJLG-33" source="sncNzBVA_kgcy9QADJLG-83" target="sncNzBVA_kgcy9QADJLG-94">
          <mxGeometry relative="1" as="geometry"/>
        </mxCell>
        <mxCell id="sncNzBVA_kgcy9QADJLG-83" value="&amp;lt;&amp;lt;component&amp;gt;&amp;gt;&lt;br&gt;最小方法&lt;br&gt;数据处理" style="html=1;" vertex="1" parent="sncNzBVA_kgcy9QADJLG-33">
          <mxGeometry x="140" y="40" width="115.71" height="60" as="geometry"/>
        </mxCell>
        <mxCell id="sncNzBVA_kgcy9QADJLG-84" value="" style="shape=component;jettyWidth=8;jettyHeight=4;" vertex="1" parent="sncNzBVA_kgcy9QADJLG-83">
          <mxGeometry x="1" width="20" height="20" relative="1" as="geometry">
            <mxPoint x="-27" y="7" as="offset"/>
          </mxGeometry>
        </mxCell>
        <mxCell id="sncNzBVA_kgcy9QADJLG-97" style="edgeStyle=orthogonalEdgeStyle;rounded=0;orthogonalLoop=1;jettySize=auto;html=1;exitX=1;exitY=0.5;exitDx=0;exitDy=0;entryX=1;entryY=0.5;entryDx=0;entryDy=0;entryPerimeter=0;endArrow=classic;endFill=1;" edge="1" parent="sncNzBVA_kgcy9QADJLG-33" source="sncNzBVA_kgcy9QADJLG-85" target="sncNzBVA_kgcy9QADJLG-94">
          <mxGeometry relative="1" as="geometry"/>
        </mxCell>
        <mxCell id="sncNzBVA_kgcy9QADJLG-85" value="&amp;lt;&amp;lt;component&amp;gt;&amp;gt;&lt;br&gt;原子方法&lt;br&gt;数据处理" style="html=1;" vertex="1" parent="sncNzBVA_kgcy9QADJLG-33">
          <mxGeometry x="140" y="140" width="115.71" height="60" as="geometry"/>
        </mxCell>
        <mxCell id="sncNzBVA_kgcy9QADJLG-86" value="" style="shape=component;jettyWidth=8;jettyHeight=4;" vertex="1" parent="sncNzBVA_kgcy9QADJLG-85">
          <mxGeometry x="1" width="20" height="20" relative="1" as="geometry">
            <mxPoint x="-27" y="7" as="offset"/>
          </mxGeometry>
        </mxCell>
        <mxCell id="sncNzBVA_kgcy9QADJLG-98" style="edgeStyle=orthogonalEdgeStyle;rounded=0;orthogonalLoop=1;jettySize=auto;html=1;exitX=1;exitY=0.5;exitDx=0;exitDy=0;entryX=1;entryY=0.5;entryDx=0;entryDy=0;endArrow=classic;endFill=1;entryPerimeter=0;" edge="1" parent="sncNzBVA_kgcy9QADJLG-33" source="sncNzBVA_kgcy9QADJLG-87" target="sncNzBVA_kgcy9QADJLG-94">
          <mxGeometry relative="1" as="geometry"/>
        </mxCell>
        <mxCell id="sncNzBVA_kgcy9QADJLG-87" value="&amp;lt;&amp;lt;component&amp;gt;&amp;gt;&lt;br&gt;原子组件&lt;br&gt;数据处理" style="html=1;" vertex="1" parent="sncNzBVA_kgcy9QADJLG-33">
          <mxGeometry x="140" y="240" width="115.71" height="60" as="geometry"/>
        </mxCell>
        <mxCell id="sncNzBVA_kgcy9QADJLG-88" value="" style="shape=component;jettyWidth=8;jettyHeight=4;" vertex="1" parent="sncNzBVA_kgcy9QADJLG-87">
          <mxGeometry x="1" width="20" height="20" relative="1" as="geometry">
            <mxPoint x="-27" y="7" as="offset"/>
          </mxGeometry>
        </mxCell>
        <mxCell id="sncNzBVA_kgcy9QADJLG-92" value="&amp;lt;&amp;lt;component&amp;gt;&amp;gt;&lt;br&gt;数据存储" style="html=1;" vertex="1" parent="sncNzBVA_kgcy9QADJLG-33">
          <mxGeometry x="380" y="140" width="115.71" height="60" as="geometry"/>
        </mxCell>
        <mxCell id="sncNzBVA_kgcy9QADJLG-93" value="" style="shape=component;jettyWidth=8;jettyHeight=4;" vertex="1" parent="sncNzBVA_kgcy9QADJLG-92">
          <mxGeometry x="1" width="20" height="20" relative="1" as="geometry">
            <mxPoint x="-27" y="7" as="offset"/>
          </mxGeometry>
        </mxCell>
        <mxCell id="sncNzBVA_kgcy9QADJLG-99" style="edgeStyle=orthogonalEdgeStyle;rounded=0;orthogonalLoop=1;jettySize=auto;html=1;exitX=0;exitY=0.5;exitDx=0;exitDy=0;exitPerimeter=0;entryX=0;entryY=0.5;entryDx=0;entryDy=0;endArrow=none;endFill=0;" edge="1" parent="sncNzBVA_kgcy9QADJLG-33" source="sncNzBVA_kgcy9QADJLG-94" target="sncNzBVA_kgcy9QADJLG-92">
          <mxGeometry relative="1" as="geometry"/>
        </mxCell>
        <mxCell id="sncNzBVA_kgcy9QADJLG-94" value="" style="shape=providedRequiredInterface;html=1;verticalLabelPosition=bottom;rotation=-180;" vertex="1" parent="sncNzBVA_kgcy9QADJLG-33">
          <mxGeometry x="330" y="160" width="20" height="20" as="geometry"/>
        </mxCell>
        <mxCell id="sncNzBVA_kgcy9QADJLG-100" value="GUI前台" style="text;html=1;strokeColor=none;fillColor=none;align=center;verticalAlign=middle;whiteSpace=wrap;rounded=0;" vertex="1" parent="sncNzBVA_kgcy9QADJLG-33">
          <mxGeometry x="227.5" width="75" height="20" as="geometry"/>
        </mxCell>
        <mxCell id="sncNzBVA_kgcy9QADJLG-126" style="edgeStyle=orthogonalEdgeStyle;rounded=0;orthogonalLoop=1;jettySize=auto;html=1;exitX=0.75;exitY=0;exitDx=0;exitDy=0;entryX=1;entryY=0.5;entryDx=0;entryDy=0;entryPerimeter=0;endArrow=none;endFill=0;fillColor=#d5e8d4;strokeColor=#82b366;" edge="1" parent="sncNzBVA_kgcy9QADJLG-33" source="sncNzBVA_kgcy9QADJLG-101" target="sncNzBVA_kgcy9QADJLG-125">
          <mxGeometry relative="1" as="geometry">
            <Array as="points">
              <mxPoint x="100" y="340"/>
              <mxPoint x="438" y="340"/>
            </Array>
          </mxGeometry>
        </mxCell>
        <mxCell id="sncNzBVA_kgcy9QADJLG-142" style="edgeStyle=orthogonalEdgeStyle;rounded=0;orthogonalLoop=1;jettySize=auto;html=1;exitX=0.5;exitY=1;exitDx=0;exitDy=0;entryX=1;entryY=0.5;entryDx=0;entryDy=0;entryPerimeter=0;endArrow=classic;endFill=1;" edge="1" parent="sncNzBVA_kgcy9QADJLG-33" source="sncNzBVA_kgcy9QADJLG-101" target="sncNzBVA_kgcy9QADJLG-140">
          <mxGeometry relative="1" as="geometry"/>
        </mxCell>
        <mxCell id="sncNzBVA_kgcy9QADJLG-101" value="&amp;lt;&amp;lt;component&amp;gt;&amp;gt;&lt;br&gt;页面制作" style="html=1;" vertex="1" parent="sncNzBVA_kgcy9QADJLG-33">
          <mxGeometry x="13.22" y="390" width="115.71" height="60" as="geometry"/>
        </mxCell>
        <mxCell id="sncNzBVA_kgcy9QADJLG-102" value="" style="shape=component;jettyWidth=8;jettyHeight=4;" vertex="1" parent="sncNzBVA_kgcy9QADJLG-101">
          <mxGeometry x="1" width="20" height="20" relative="1" as="geometry">
            <mxPoint x="-27" y="7" as="offset"/>
          </mxGeometry>
        </mxCell>
        <mxCell id="sncNzBVA_kgcy9QADJLG-129" style="edgeStyle=orthogonalEdgeStyle;rounded=0;orthogonalLoop=1;jettySize=auto;html=1;exitX=0.75;exitY=0;exitDx=0;exitDy=0;entryX=1;entryY=0.5;entryDx=0;entryDy=0;entryPerimeter=0;endArrow=none;endFill=0;fillColor=#d5e8d4;strokeColor=#82b366;" edge="1" parent="sncNzBVA_kgcy9QADJLG-33" source="sncNzBVA_kgcy9QADJLG-103" target="sncNzBVA_kgcy9QADJLG-125">
          <mxGeometry relative="1" as="geometry">
            <Array as="points">
              <mxPoint x="228" y="340"/>
              <mxPoint x="438" y="340"/>
            </Array>
          </mxGeometry>
        </mxCell>
        <mxCell id="sncNzBVA_kgcy9QADJLG-143" style="edgeStyle=orthogonalEdgeStyle;rounded=0;orthogonalLoop=1;jettySize=auto;html=1;exitX=0.5;exitY=1;exitDx=0;exitDy=0;entryX=1;entryY=0.5;entryDx=0;entryDy=0;entryPerimeter=0;endArrow=classic;endFill=1;" edge="1" parent="sncNzBVA_kgcy9QADJLG-33" source="sncNzBVA_kgcy9QADJLG-103" target="sncNzBVA_kgcy9QADJLG-140">
          <mxGeometry relative="1" as="geometry"/>
        </mxCell>
        <mxCell id="sncNzBVA_kgcy9QADJLG-103" value="&amp;lt;&amp;lt;component&amp;gt;&amp;gt;&lt;br&gt;方法制作" style="html=1;" vertex="1" parent="sncNzBVA_kgcy9QADJLG-33">
          <mxGeometry x="141.06999999999996" y="390" width="115.71" height="60" as="geometry"/>
        </mxCell>
        <mxCell id="sncNzBVA_kgcy9QADJLG-104" value="" style="shape=component;jettyWidth=8;jettyHeight=4;" vertex="1" parent="sncNzBVA_kgcy9QADJLG-103">
          <mxGeometry x="1" width="20" height="20" relative="1" as="geometry">
            <mxPoint x="-27" y="7" as="offset"/>
          </mxGeometry>
        </mxCell>
        <mxCell id="sncNzBVA_kgcy9QADJLG-144" style="edgeStyle=orthogonalEdgeStyle;rounded=0;orthogonalLoop=1;jettySize=auto;html=1;exitX=0.5;exitY=1;exitDx=0;exitDy=0;entryX=1;entryY=0.5;entryDx=0;entryDy=0;entryPerimeter=0;endArrow=classic;endFill=1;" edge="1" parent="sncNzBVA_kgcy9QADJLG-33" source="sncNzBVA_kgcy9QADJLG-105" target="sncNzBVA_kgcy9QADJLG-140">
          <mxGeometry relative="1" as="geometry"/>
        </mxCell>
        <mxCell id="sncNzBVA_kgcy9QADJLG-105" value="&amp;lt;&amp;lt;component&amp;gt;&amp;gt;&lt;br&gt;依赖管理" style="html=1;" vertex="1" parent="sncNzBVA_kgcy9QADJLG-33">
          <mxGeometry x="271.07" y="390" width="115.71" height="60" as="geometry"/>
        </mxCell>
        <mxCell id="sncNzBVA_kgcy9QADJLG-106" value="" style="shape=component;jettyWidth=8;jettyHeight=4;" vertex="1" parent="sncNzBVA_kgcy9QADJLG-105">
          <mxGeometry x="1" width="20" height="20" relative="1" as="geometry">
            <mxPoint x="-27" y="7" as="offset"/>
          </mxGeometry>
        </mxCell>
        <mxCell id="sncNzBVA_kgcy9QADJLG-130" style="edgeStyle=orthogonalEdgeStyle;rounded=0;orthogonalLoop=1;jettySize=auto;html=1;exitX=0.75;exitY=0;exitDx=0;exitDy=0;entryX=1;entryY=0.5;entryDx=0;entryDy=0;entryPerimeter=0;endArrow=none;endFill=0;fillColor=#d5e8d4;strokeColor=#82b366;" edge="1" parent="sncNzBVA_kgcy9QADJLG-33" source="sncNzBVA_kgcy9QADJLG-107" target="sncNzBVA_kgcy9QADJLG-125">
          <mxGeometry relative="1" as="geometry">
            <Array as="points">
              <mxPoint x="488" y="340"/>
              <mxPoint x="438" y="340"/>
            </Array>
          </mxGeometry>
        </mxCell>
        <mxCell id="sncNzBVA_kgcy9QADJLG-107" value="&amp;lt;&amp;lt;component&amp;gt;&amp;gt;&lt;br&gt;保存发布" style="html=1;" vertex="1" parent="sncNzBVA_kgcy9QADJLG-33">
          <mxGeometry x="401.07" y="390" width="115.71" height="60" as="geometry"/>
        </mxCell>
        <mxCell id="sncNzBVA_kgcy9QADJLG-108" value="" style="shape=component;jettyWidth=8;jettyHeight=4;" vertex="1" parent="sncNzBVA_kgcy9QADJLG-107">
          <mxGeometry x="1" width="20" height="20" relative="1" as="geometry">
            <mxPoint x="-27" y="7" as="offset"/>
          </mxGeometry>
        </mxCell>
        <mxCell id="sncNzBVA_kgcy9QADJLG-110" style="edgeStyle=orthogonalEdgeStyle;rounded=0;orthogonalLoop=1;jettySize=auto;html=1;exitX=0;exitY=0.5;exitDx=0;exitDy=0;exitPerimeter=0;entryX=0.5;entryY=0;entryDx=0;entryDy=0;endArrow=none;endFill=0;" edge="1" parent="sncNzBVA_kgcy9QADJLG-33" source="sncNzBVA_kgcy9QADJLG-109" target="sncNzBVA_kgcy9QADJLG-101">
          <mxGeometry relative="1" as="geometry"/>
        </mxCell>
        <mxCell id="sncNzBVA_kgcy9QADJLG-111" style="edgeStyle=orthogonalEdgeStyle;rounded=0;orthogonalLoop=1;jettySize=auto;html=1;exitX=0;exitY=0.5;exitDx=0;exitDy=0;exitPerimeter=0;entryX=0.5;entryY=0;entryDx=0;entryDy=0;endArrow=none;endFill=0;" edge="1" parent="sncNzBVA_kgcy9QADJLG-33" source="sncNzBVA_kgcy9QADJLG-109" target="sncNzBVA_kgcy9QADJLG-103">
          <mxGeometry relative="1" as="geometry"/>
        </mxCell>
        <mxCell id="sncNzBVA_kgcy9QADJLG-112" style="edgeStyle=orthogonalEdgeStyle;rounded=0;orthogonalLoop=1;jettySize=auto;html=1;exitX=0;exitY=0.5;exitDx=0;exitDy=0;exitPerimeter=0;entryX=0.5;entryY=0;entryDx=0;entryDy=0;endArrow=none;endFill=0;" edge="1" parent="sncNzBVA_kgcy9QADJLG-33" source="sncNzBVA_kgcy9QADJLG-109" target="sncNzBVA_kgcy9QADJLG-105">
          <mxGeometry relative="1" as="geometry"/>
        </mxCell>
        <mxCell id="sncNzBVA_kgcy9QADJLG-113" style="edgeStyle=orthogonalEdgeStyle;rounded=0;orthogonalLoop=1;jettySize=auto;html=1;exitX=0;exitY=0.5;exitDx=0;exitDy=0;exitPerimeter=0;entryX=0.5;entryY=0;entryDx=0;entryDy=0;endArrow=none;endFill=0;" edge="1" parent="sncNzBVA_kgcy9QADJLG-33" source="sncNzBVA_kgcy9QADJLG-109" target="sncNzBVA_kgcy9QADJLG-107">
          <mxGeometry relative="1" as="geometry"/>
        </mxCell>
        <mxCell id="sncNzBVA_kgcy9QADJLG-109" value="" style="shape=providedRequiredInterface;html=1;verticalLabelPosition=bottom;rotation=-180;" vertex="1" parent="sncNzBVA_kgcy9QADJLG-33">
          <mxGeometry x="20" y="315" width="20" height="20" as="geometry"/>
        </mxCell>
        <mxCell id="sncNzBVA_kgcy9QADJLG-114" value="前台制作" style="text;html=1;strokeColor=none;fillColor=none;align=center;verticalAlign=middle;whiteSpace=wrap;rounded=0;" vertex="1" parent="sncNzBVA_kgcy9QADJLG-33">
          <mxGeometry x="3" y="335" width="57" height="20" as="geometry"/>
        </mxCell>
        <mxCell id="sncNzBVA_kgcy9QADJLG-131" style="edgeStyle=orthogonalEdgeStyle;rounded=0;orthogonalLoop=1;jettySize=auto;html=1;exitX=0;exitY=0.5;exitDx=0;exitDy=0;exitPerimeter=0;entryX=0.5;entryY=1;entryDx=0;entryDy=0;endArrow=none;endFill=0;" edge="1" parent="sncNzBVA_kgcy9QADJLG-33" source="sncNzBVA_kgcy9QADJLG-125" target="sncNzBVA_kgcy9QADJLG-92">
          <mxGeometry relative="1" as="geometry"/>
        </mxCell>
        <mxCell id="sncNzBVA_kgcy9QADJLG-125" value="" style="shape=providedRequiredInterface;html=1;verticalLabelPosition=bottom;rotation=90;" vertex="1" parent="sncNzBVA_kgcy9QADJLG-33">
          <mxGeometry x="428" y="240" width="20" height="20" as="geometry"/>
        </mxCell>
        <mxCell id="sncNzBVA_kgcy9QADJLG-128" style="edgeStyle=orthogonalEdgeStyle;rounded=0;orthogonalLoop=1;jettySize=auto;html=1;exitX=0.75;exitY=0;exitDx=0;exitDy=0;endArrow=none;endFill=0;fillColor=#d5e8d4;strokeColor=#82b366;entryX=1;entryY=0.5;entryDx=0;entryDy=0;entryPerimeter=0;" edge="1" parent="sncNzBVA_kgcy9QADJLG-33" source="sncNzBVA_kgcy9QADJLG-105" target="sncNzBVA_kgcy9QADJLG-125">
          <mxGeometry relative="1" as="geometry">
            <mxPoint x="640" y="329.9999999999998" as="targetPoint"/>
            <Array as="points">
              <mxPoint x="358" y="340"/>
              <mxPoint x="438" y="340"/>
            </Array>
          </mxGeometry>
        </mxCell>
        <mxCell id="sncNzBVA_kgcy9QADJLG-141" style="edgeStyle=orthogonalEdgeStyle;rounded=0;orthogonalLoop=1;jettySize=auto;html=1;exitX=0;exitY=0.5;exitDx=0;exitDy=0;exitPerimeter=0;entryX=0.5;entryY=1;entryDx=0;entryDy=0;endArrow=none;endFill=0;" edge="1" parent="sncNzBVA_kgcy9QADJLG-33" source="sncNzBVA_kgcy9QADJLG-140" target="sncNzBVA_kgcy9QADJLG-107">
          <mxGeometry relative="1" as="geometry"/>
        </mxCell>
        <mxCell id="sncNzBVA_kgcy9QADJLG-140" value="" style="shape=providedRequiredInterface;html=1;verticalLabelPosition=bottom;rotation=-180;" vertex="1" parent="sncNzBVA_kgcy9QADJLG-33">
          <mxGeometry x="401" y="480" width="20" height="20" as="geometry"/>
        </mxCell>
        <mxCell id="sncNzBVA_kgcy9QADJLG-155" value="数据存储" style="text;html=1;strokeColor=none;fillColor=none;align=center;verticalAlign=middle;whiteSpace=wrap;rounded=0;" vertex="1" parent="sncNzBVA_kgcy9QADJLG-33">
          <mxGeometry x="320" y="185" width="40" height="20" as="geometry"/>
        </mxCell>
        <mxCell id="sncNzBVA_kgcy9QADJLG-156" value="获取数据" style="text;html=1;strokeColor=none;fillColor=none;align=center;verticalAlign=middle;whiteSpace=wrap;rounded=0;" vertex="1" parent="sncNzBVA_kgcy9QADJLG-33">
          <mxGeometry x="455.71000000000004" y="240" width="40" height="20" as="geometry"/>
        </mxCell>
        <mxCell id="sncNzBVA_kgcy9QADJLG-157" value="保存发布" style="text;html=1;strokeColor=none;fillColor=none;align=center;verticalAlign=middle;whiteSpace=wrap;rounded=0;" vertex="1" parent="sncNzBVA_kgcy9QADJLG-33">
          <mxGeometry x="408" y="460" width="40" height="20" as="geometry"/>
        </mxCell>
        <mxCell id="sncNzBVA_kgcy9QADJLG-45" style="edgeStyle=orthogonalEdgeStyle;rounded=0;orthogonalLoop=1;jettySize=auto;html=1;exitX=0;exitY=0.5;exitDx=0;exitDy=0;exitPerimeter=0;entryX=0;entryY=0.5;entryDx=0;entryDy=0;endArrow=none;endFill=0;" edge="1" parent="1" source="sncNzBVA_kgcy9QADJLG-43" target="sncNzBVA_kgcy9QADJLG-44">
          <mxGeometry relative="1" as="geometry"/>
        </mxCell>
        <mxCell id="sncNzBVA_kgcy9QADJLG-43" value="" style="shape=providedRequiredInterface;html=1;verticalLabelPosition=bottom;rotation=-180;" vertex="1" parent="1">
          <mxGeometry x="240" y="550" width="20" height="20" as="geometry"/>
        </mxCell>
        <mxCell id="sncNzBVA_kgcy9QADJLG-46" style="edgeStyle=orthogonalEdgeStyle;rounded=0;orthogonalLoop=1;jettySize=auto;html=1;exitX=1;exitY=0.5;exitDx=0;exitDy=0;entryX=0;entryY=0.5;entryDx=0;entryDy=0;endArrow=none;endFill=0;" edge="1" parent="1" source="sncNzBVA_kgcy9QADJLG-44" target="sncNzBVA_kgcy9QADJLG-11">
          <mxGeometry relative="1" as="geometry"/>
        </mxCell>
        <mxCell id="sncNzBVA_kgcy9QADJLG-47" style="edgeStyle=orthogonalEdgeStyle;rounded=0;orthogonalLoop=1;jettySize=auto;html=1;exitX=1;exitY=0.5;exitDx=0;exitDy=0;entryX=0;entryY=0.5;entryDx=0;entryDy=0;endArrow=none;endFill=0;" edge="1" parent="1" source="sncNzBVA_kgcy9QADJLG-44" target="sncNzBVA_kgcy9QADJLG-13">
          <mxGeometry relative="1" as="geometry"/>
        </mxCell>
        <mxCell id="sncNzBVA_kgcy9QADJLG-48" style="edgeStyle=orthogonalEdgeStyle;rounded=0;orthogonalLoop=1;jettySize=auto;html=1;exitX=1;exitY=0.5;exitDx=0;exitDy=0;entryX=0;entryY=0.5;entryDx=0;entryDy=0;endArrow=none;endFill=0;" edge="1" parent="1" source="sncNzBVA_kgcy9QADJLG-44" target="sncNzBVA_kgcy9QADJLG-15">
          <mxGeometry relative="1" as="geometry"/>
        </mxCell>
        <mxCell id="sncNzBVA_kgcy9QADJLG-49" style="edgeStyle=orthogonalEdgeStyle;rounded=0;orthogonalLoop=1;jettySize=auto;html=1;exitX=1;exitY=0.5;exitDx=0;exitDy=0;entryX=0;entryY=0.5;entryDx=0;entryDy=0;endArrow=none;endFill=0;" edge="1" parent="1" source="sncNzBVA_kgcy9QADJLG-44" target="sncNzBVA_kgcy9QADJLG-17">
          <mxGeometry relative="1" as="geometry"/>
        </mxCell>
        <mxCell id="sncNzBVA_kgcy9QADJLG-44" value="" style="rounded=0;whiteSpace=wrap;html=1;" vertex="1" parent="1">
          <mxGeometry x="330" y="550" width="20" height="20" as="geometry"/>
        </mxCell>
        <mxCell id="sncNzBVA_kgcy9QADJLG-73" style="edgeStyle=orthogonalEdgeStyle;rounded=0;orthogonalLoop=1;jettySize=auto;html=1;exitX=1;exitY=0.5;exitDx=0;exitDy=0;entryX=1;entryY=0.5;entryDx=0;entryDy=0;entryPerimeter=0;endArrow=classic;endFill=1;" edge="1" parent="1" source="sncNzBVA_kgcy9QADJLG-67" target="sncNzBVA_kgcy9QADJLG-72">
          <mxGeometry relative="1" as="geometry"/>
        </mxCell>
        <mxCell id="sncNzBVA_kgcy9QADJLG-67" value="" style="rounded=0;whiteSpace=wrap;html=1;" vertex="1" parent="1">
          <mxGeometry x="880" y="560" width="20" height="20" as="geometry"/>
        </mxCell>
        <mxCell id="sncNzBVA_kgcy9QADJLG-70" style="edgeStyle=orthogonalEdgeStyle;rounded=0;orthogonalLoop=1;jettySize=auto;html=1;exitX=0;exitY=0.5;exitDx=0;exitDy=0;exitPerimeter=0;entryX=0;entryY=0.5;entryDx=0;entryDy=0;endArrow=none;endFill=0;dashed=1;" edge="1" parent="1" source="sncNzBVA_kgcy9QADJLG-68" target="sncNzBVA_kgcy9QADJLG-67">
          <mxGeometry relative="1" as="geometry"/>
        </mxCell>
        <mxCell id="sncNzBVA_kgcy9QADJLG-68" value="" style="shape=providedRequiredInterface;html=1;verticalLabelPosition=bottom;rotation=-180;" vertex="1" parent="1">
          <mxGeometry x="810" y="560" width="20" height="20" as="geometry"/>
        </mxCell>
        <mxCell id="sncNzBVA_kgcy9QADJLG-69" style="edgeStyle=orthogonalEdgeStyle;rounded=0;orthogonalLoop=1;jettySize=auto;html=1;exitX=1;exitY=0.5;exitDx=0;exitDy=0;entryX=1;entryY=0.5;entryDx=0;entryDy=0;entryPerimeter=0;endArrow=classic;endFill=1;dashed=1;" edge="1" parent="1" source="sncNzBVA_kgcy9QADJLG-31" target="sncNzBVA_kgcy9QADJLG-68">
          <mxGeometry relative="1" as="geometry"/>
        </mxCell>
        <mxCell id="sncNzBVA_kgcy9QADJLG-115" value="&amp;lt;&amp;lt;component&amp;gt;&amp;gt;&lt;br&gt;git服务" style="html=1;" vertex="1" parent="1">
          <mxGeometry x="390" y="970" width="115.71" height="60" as="geometry"/>
        </mxCell>
        <mxCell id="sncNzBVA_kgcy9QADJLG-116" value="" style="shape=component;jettyWidth=8;jettyHeight=4;" vertex="1" parent="sncNzBVA_kgcy9QADJLG-115">
          <mxGeometry x="1" width="20" height="20" relative="1" as="geometry">
            <mxPoint x="-27" y="7" as="offset"/>
          </mxGeometry>
        </mxCell>
        <mxCell id="sncNzBVA_kgcy9QADJLG-121" style="edgeStyle=orthogonalEdgeStyle;rounded=0;orthogonalLoop=1;jettySize=auto;html=1;exitX=0;exitY=0.5;exitDx=0;exitDy=0;exitPerimeter=0;entryX=0.5;entryY=0;entryDx=0;entryDy=0;dashed=1;endArrow=none;endFill=0;" edge="1" parent="1" source="sncNzBVA_kgcy9QADJLG-117" target="sncNzBVA_kgcy9QADJLG-115">
          <mxGeometry relative="1" as="geometry"/>
        </mxCell>
        <mxCell id="sncNzBVA_kgcy9QADJLG-124" style="edgeStyle=orthogonalEdgeStyle;rounded=0;orthogonalLoop=1;jettySize=auto;html=1;exitX=0;exitY=0.5;exitDx=0;exitDy=0;exitPerimeter=0;entryX=0.5;entryY=0;entryDx=0;entryDy=0;dashed=1;endArrow=none;endFill=0;" edge="1" parent="1" source="sncNzBVA_kgcy9QADJLG-117" target="sncNzBVA_kgcy9QADJLG-122">
          <mxGeometry relative="1" as="geometry"/>
        </mxCell>
        <mxCell id="sncNzBVA_kgcy9QADJLG-117" value="" style="shape=providedRequiredInterface;html=1;verticalLabelPosition=bottom;rotation=-90;" vertex="1" parent="1">
          <mxGeometry x="517.85" y="890" width="20" height="20" as="geometry"/>
        </mxCell>
        <mxCell id="sncNzBVA_kgcy9QADJLG-118" style="edgeStyle=orthogonalEdgeStyle;rounded=0;orthogonalLoop=1;jettySize=auto;html=1;exitX=1;exitY=0.75;exitDx=0;exitDy=0;entryX=1;entryY=0.5;entryDx=0;entryDy=0;entryPerimeter=0;endArrow=none;endFill=0;fillColor=#f8cecc;strokeColor=#b85450;dashed=1;" edge="1" parent="1" source="sncNzBVA_kgcy9QADJLG-11" target="sncNzBVA_kgcy9QADJLG-117">
          <mxGeometry relative="1" as="geometry"/>
        </mxCell>
        <mxCell id="sncNzBVA_kgcy9QADJLG-119" style="edgeStyle=orthogonalEdgeStyle;rounded=0;orthogonalLoop=1;jettySize=auto;html=1;exitX=1;exitY=0.75;exitDx=0;exitDy=0;entryX=1;entryY=0.5;entryDx=0;entryDy=0;entryPerimeter=0;endArrow=none;endFill=0;fillColor=#f8cecc;strokeColor=#b85450;dashed=1;" edge="1" parent="1" source="sncNzBVA_kgcy9QADJLG-13" target="sncNzBVA_kgcy9QADJLG-117">
          <mxGeometry relative="1" as="geometry"/>
        </mxCell>
        <mxCell id="sncNzBVA_kgcy9QADJLG-120" style="edgeStyle=orthogonalEdgeStyle;rounded=0;orthogonalLoop=1;jettySize=auto;html=1;exitX=1;exitY=0.75;exitDx=0;exitDy=0;entryX=1;entryY=0.5;entryDx=0;entryDy=0;entryPerimeter=0;endArrow=classic;endFill=1;fillColor=#f8cecc;strokeColor=#b85450;dashed=1;" edge="1" parent="1" source="sncNzBVA_kgcy9QADJLG-15" target="sncNzBVA_kgcy9QADJLG-117">
          <mxGeometry relative="1" as="geometry"/>
        </mxCell>
        <mxCell id="sncNzBVA_kgcy9QADJLG-122" value="&amp;lt;&amp;lt;component&amp;gt;&amp;gt;&lt;br&gt;包管理服务" style="html=1;" vertex="1" parent="1">
          <mxGeometry x="550" y="970" width="115.71" height="60" as="geometry"/>
        </mxCell>
        <mxCell id="sncNzBVA_kgcy9QADJLG-123" value="" style="shape=component;jettyWidth=8;jettyHeight=4;" vertex="1" parent="sncNzBVA_kgcy9QADJLG-122">
          <mxGeometry x="1" width="20" height="20" relative="1" as="geometry">
            <mxPoint x="-27" y="7" as="offset"/>
          </mxGeometry>
        </mxCell>
        <mxCell id="sncNzBVA_kgcy9QADJLG-132" value="&amp;lt;&amp;lt;component&amp;gt;&amp;gt;&lt;br&gt;部署服务" style="html=1;" vertex="1" parent="1">
          <mxGeometry x="1591.06" y="700" width="115.71" height="60" as="geometry"/>
        </mxCell>
        <mxCell id="sncNzBVA_kgcy9QADJLG-133" value="" style="shape=component;jettyWidth=8;jettyHeight=4;" vertex="1" parent="sncNzBVA_kgcy9QADJLG-132">
          <mxGeometry x="1" width="20" height="20" relative="1" as="geometry">
            <mxPoint x="-27" y="7" as="offset"/>
          </mxGeometry>
        </mxCell>
        <mxCell id="sncNzBVA_kgcy9QADJLG-136" style="edgeStyle=orthogonalEdgeStyle;rounded=0;orthogonalLoop=1;jettySize=auto;html=1;exitX=0;exitY=0.5;exitDx=0;exitDy=0;exitPerimeter=0;entryX=0;entryY=0.5;entryDx=0;entryDy=0;dashed=1;endArrow=none;endFill=0;" edge="1" parent="1" source="sncNzBVA_kgcy9QADJLG-134" target="sncNzBVA_kgcy9QADJLG-132">
          <mxGeometry relative="1" as="geometry"/>
        </mxCell>
        <mxCell id="sncNzBVA_kgcy9QADJLG-139" style="edgeStyle=orthogonalEdgeStyle;rounded=0;orthogonalLoop=1;jettySize=auto;html=1;exitX=0;exitY=0.5;exitDx=0;exitDy=0;exitPerimeter=0;entryX=0;entryY=0.5;entryDx=0;entryDy=0;dashed=1;endArrow=none;endFill=0;" edge="1" parent="1" source="sncNzBVA_kgcy9QADJLG-134" target="sncNzBVA_kgcy9QADJLG-137">
          <mxGeometry relative="1" as="geometry"/>
        </mxCell>
        <mxCell id="sncNzBVA_kgcy9QADJLG-134" value="" style="shape=providedRequiredInterface;html=1;verticalLabelPosition=bottom;rotation=-180;" vertex="1" parent="1">
          <mxGeometry x="1500" y="720" width="20" height="20" as="geometry"/>
        </mxCell>
        <mxCell id="sncNzBVA_kgcy9QADJLG-135" style="edgeStyle=orthogonalEdgeStyle;rounded=0;orthogonalLoop=1;jettySize=auto;html=1;exitX=1;exitY=0.5;exitDx=0;exitDy=0;entryX=1;entryY=0.5;entryDx=0;entryDy=0;entryPerimeter=0;endArrow=classic;endFill=1;dashed=1;" edge="1" parent="1" source="sncNzBVA_kgcy9QADJLG-107" target="sncNzBVA_kgcy9QADJLG-134">
          <mxGeometry relative="1" as="geometry"/>
        </mxCell>
        <mxCell id="sncNzBVA_kgcy9QADJLG-137" value="&amp;lt;&amp;lt;component&amp;gt;&amp;gt;&lt;br&gt;市场服务" style="html=1;" vertex="1" parent="1">
          <mxGeometry x="1591.06" y="810" width="115.71" height="60" as="geometry"/>
        </mxCell>
        <mxCell id="sncNzBVA_kgcy9QADJLG-138" value="" style="shape=component;jettyWidth=8;jettyHeight=4;" vertex="1" parent="sncNzBVA_kgcy9QADJLG-137">
          <mxGeometry x="1" width="20" height="20" relative="1" as="geometry">
            <mxPoint x="-27" y="7" as="offset"/>
          </mxGeometry>
        </mxCell>
        <mxCell id="sncNzBVA_kgcy9QADJLG-145" value="&amp;lt;&amp;lt;component&amp;gt;&amp;gt;&lt;br&gt;账号服务" style="html=1;" vertex="1" parent="1">
          <mxGeometry x="970" y="970" width="115.71" height="60" as="geometry"/>
        </mxCell>
        <mxCell id="sncNzBVA_kgcy9QADJLG-146" value="" style="shape=component;jettyWidth=8;jettyHeight=4;" vertex="1" parent="sncNzBVA_kgcy9QADJLG-145">
          <mxGeometry x="1" width="20" height="20" relative="1" as="geometry">
            <mxPoint x="-27" y="7" as="offset"/>
          </mxGeometry>
        </mxCell>
        <mxCell id="sncNzBVA_kgcy9QADJLG-151" style="edgeStyle=orthogonalEdgeStyle;rounded=0;orthogonalLoop=1;jettySize=auto;html=1;exitX=0;exitY=0.5;exitDx=0;exitDy=0;exitPerimeter=0;entryX=0.5;entryY=0;entryDx=0;entryDy=0;dashed=1;endArrow=none;endFill=0;" edge="1" parent="1" source="sncNzBVA_kgcy9QADJLG-148" target="sncNzBVA_kgcy9QADJLG-145">
          <mxGeometry relative="1" as="geometry"/>
        </mxCell>
        <mxCell id="sncNzBVA_kgcy9QADJLG-148" value="" style="shape=providedRequiredInterface;html=1;verticalLabelPosition=bottom;rotation=-180;" vertex="1" parent="1">
          <mxGeometry x="973" y="920" width="20" height="20" as="geometry"/>
        </mxCell>
        <mxCell id="sncNzBVA_kgcy9QADJLG-152" value="后台使用" style="text;html=1;strokeColor=none;fillColor=none;align=center;verticalAlign=middle;whiteSpace=wrap;rounded=0;" vertex="1" parent="1">
          <mxGeometry x="225" y="580" width="50" height="20" as="geometry"/>
        </mxCell>
        <mxCell id="sncNzBVA_kgcy9QADJLG-158" value="部署或发布至市场" style="text;html=1;strokeColor=none;fillColor=none;align=center;verticalAlign=middle;whiteSpace=wrap;rounded=0;" vertex="1" parent="1">
          <mxGeometry x="1480" y="750" width="40" height="20" as="geometry"/>
        </mxCell>
      </root>
    </mxGraphModel>
  </diagram>
</mxfile>
